# Blender v2.69 (sub 0) OBJ File: 'mdl_human_male.blend'
# www.blender.org
o sword
v 0.006875 -0.101755 0.003643
v 0.007156 0.000482 0.008133
v 0.009058 -0.109482 0.010715
v 0.009058 -0.126225 0.010715
v 0.007384 -0.132262 0.003936
v 0.010350 0.424338 0.002402
v 0.018632 0.011210 0.017012
v 0.009037 -0.101755 0.002098
v 0.011883 0.000482 0.004694
v 0.012977 -0.109482 0.006187
v 0.012977 -0.126225 0.006187
v 0.009346 -0.132262 0.002267
v 0.048188 0.011037 0.009019
v -0.006875 -0.101755 0.003643
v 0.000000 -0.101755 0.004551
v -0.007156 0.000482 0.008133
v 0.000000 0.000482 0.010160
v -0.009058 -0.109482 0.010715
v 0.000000 -0.109482 0.013386
v -0.009058 -0.126225 0.010715
v 0.000000 -0.126225 0.013386
v -0.007384 -0.132262 0.003936
v 0.000000 -0.132262 0.004917
v 0.000000 0.016210 0.000769
v 0.000000 0.423288 0.004488
v -0.010350 0.424338 0.002402
v -0.018632 0.011210 0.017012
v 0.000000 0.010864 0.018768
v -0.009037 -0.101755 0.002098
v -0.011883 0.000482 0.004694
v -0.012977 -0.109482 0.006187
v -0.012977 -0.126225 0.006187
v -0.009346 -0.132262 0.002267
v -0.048188 0.011037 0.009019
v 0.006875 -0.101755 -0.003643
v 0.009140 -0.101755 0.000000
v 0.007156 0.000482 -0.008133
v 0.013845 0.000482 0.000000
v 0.009058 -0.109482 -0.010715
v 0.013945 -0.109482 0.000000
v 0.009058 -0.126225 -0.010715
v 0.013945 -0.126225 0.000000
v 0.007384 -0.132262 -0.003936
v 0.009179 -0.132262 0.000000
v 0.018183 0.018294 0.000000
v 0.012546 0.017146 0.000000
v 0.023514 0.427510 0.000000
v 0.010350 0.424338 -0.002402
v 0.011441 0.017146 0.000000
v 0.018632 0.011210 -0.017012
v 0.066870 0.010864 0.000000
v 0.009037 -0.101755 -0.002098
v 0.011883 0.000482 -0.004694
v 0.012977 -0.109482 -0.006187
v 0.012977 -0.126225 -0.006187
v 0.009346 -0.132262 -0.002267
v 0.048188 0.011037 -0.009019
v -0.006875 -0.101755 -0.003643
v -0.009140 -0.101755 0.000000
v 0.000000 -0.101755 -0.004551
v -0.007156 0.000482 -0.008133
v -0.013845 0.000482 0.000000
v 0.000000 0.000482 -0.010160
v -0.009058 -0.109482 -0.010715
v -0.013945 -0.109482 0.000000
v 0.000000 -0.109482 -0.013386
v -0.009058 -0.126225 -0.010715
v -0.013945 -0.126225 0.000000
v 0.000000 -0.126225 -0.013386
v -0.007384 -0.132262 -0.003936
v -0.009179 -0.132262 0.000000
v 0.000000 -0.132262 -0.004917
v 0.000000 -0.133556 -0.000000
v 0.000000 0.016210 -0.000769
v -0.018183 0.018294 0.000000
v -0.012546 0.017146 0.000000
v 0.000000 0.423288 -0.004488
v -0.023514 0.427510 0.000000
v -0.010350 0.424338 -0.002402
v 0.000000 0.016210 0.000000
v -0.011441 0.017146 0.000000
v -0.018632 0.011210 -0.017012
v -0.066870 0.010864 0.000000
v 0.000000 0.010864 -0.018768
v -0.009037 -0.101755 -0.002098
v -0.011883 0.000482 -0.004694
v -0.012977 -0.109482 -0.006187
v -0.012977 -0.126225 -0.006187
v -0.009346 -0.132262 -0.002267
v -0.048188 0.011037 -0.009019
v 0.000000 0.530404 0.000000
vn 0.130782 -0.054311 0.989922
vn 0.998364 -0.029039 0.049263
vn 0.086651 0.749874 0.655881
vn 0.430252 0.672565 0.602113
vn 0.282876 0.000000 0.959157
vn 0.756093 0.000000 0.654464
vn 0.567722 -0.660459 0.491412
vn 0.185126 -0.756113 0.627712
vn 0.139563 -0.990160 -0.010247
vn 0.033796 -0.966525 0.254336
vn 0.061595 -0.005556 0.998086
vn 0.000000 0.000000 1.000000
vn 0.000000 -0.635056 -0.772466
vn 0.184473 -0.736238 0.651093
vn 0.191528 -0.978217 0.080054
vn 0.580987 -0.037305 0.813057
vn 0.880567 0.471925 0.043448
vn 0.987960 0.000000 0.154711
vn 0.779046 -0.614984 0.121994
vn 0.229954 -0.920443 0.316079
vn 0.009018 0.958568 0.284722
vn 0.086795 0.949871 0.300352
vn 0.144753 0.948531 0.281667
vn 0.193386 0.041073 0.980263
vn 0.170306 0.038920 0.984622
vn -0.130782 -0.054311 0.989922
vn -0.998364 -0.029039 0.049263
vn -0.204300 0.691660 0.692725
vn -0.610157 0.590568 0.528145
vn -0.282876 0.000000 0.959157
vn -0.756093 0.000000 0.654464
vn -0.567722 -0.660459 0.491412
vn -0.185126 -0.756113 0.627712
vn -0.139563 -0.990160 -0.010247
vn -0.033796 -0.966525 0.254336
vn -0.198423 -0.008954 0.980075
vn -0.180648 -0.004828 0.983536
vn -0.084073 -0.635974 0.767118
vn -0.202762 -0.876387 0.436845
vn -0.580987 -0.037305 0.813057
vn -0.841802 0.523443 0.131823
vn -0.987960 0.000000 0.154711
vn -0.779046 -0.614984 0.121994
vn -0.173983 -0.731649 0.659106
vn 0.048782 0.937504 0.344537
vn 0.113193 0.555630 0.823689
vn -0.144753 0.948531 0.281667
vn -0.193386 0.041073 0.980263
vn -0.170306 0.038920 0.984622
vn 0.130782 -0.054311 -0.989922
vn 0.998364 -0.029039 -0.049263
vn 0.204300 0.691660 -0.692725
vn 0.610157 0.590568 -0.528145
vn 0.282876 0.000000 -0.959157
vn 0.756093 0.000000 -0.654464
vn 0.567722 -0.660459 -0.491412
vn 0.185126 -0.756113 -0.627712
vn 0.139563 -0.990160 0.010247
vn 0.033796 -0.966525 -0.254336
vn 0.198423 -0.008954 -0.980075
vn 0.180648 -0.004828 -0.983536
vn 0.000000 -0.635056 0.772466
vn 0.084073 -0.635974 -0.767118
vn 0.202762 -0.876387 -0.436845
vn 0.580987 -0.037305 -0.813057
vn 0.841802 0.523443 -0.131823
vn 0.987960 0.000000 -0.154711
vn 0.779046 -0.614984 -0.121994
vn 0.173983 -0.731649 -0.659106
vn -0.048782 0.937504 -0.344537
vn -0.113193 0.555630 -0.823689
vn 0.144753 0.948531 -0.281667
vn 0.193386 0.041073 -0.980263
vn 0.170306 0.038920 -0.984622
vn -0.130782 -0.054311 -0.989922
vn -0.998364 -0.029039 -0.049263
vn -0.086651 0.749874 -0.655881
vn -0.430252 0.672565 -0.602113
vn -0.282876 0.000000 -0.959157
vn -0.756093 0.000000 -0.654464
vn -0.567722 -0.660459 -0.491412
vn -0.185126 -0.756113 -0.627712
vn -0.139563 -0.990160 0.010247
vn -0.033796 -0.966525 -0.254336
vn -0.061595 -0.005556 -0.998086
vn 0.000000 0.000000 -1.000000
vn -0.184473 -0.736238 -0.651093
vn -0.191528 -0.978217 -0.080054
vn -0.580987 -0.037305 -0.813057
vn -0.880567 0.471925 -0.043448
vn -0.987960 0.000000 -0.154711
vn -0.779046 -0.614984 -0.121994
vn -0.229954 -0.920443 -0.316079
vn -0.009018 0.958568 -0.284722
vn -0.086795 0.949871 -0.300352
vn -0.144753 0.948531 -0.281667
vn -0.193386 0.041073 -0.980263
vn -0.170306 0.038920 -0.984622
vn 0.272347 -0.042963 0.961240
vn 0.921818 -0.042416 0.385296
vn 0.204300 0.691660 0.692725
vn 0.610158 0.590568 0.528145
vn 0.282876 0.000000 0.959156
vn 0.756094 0.000000 0.654464
vn 0.450148 -0.719139 0.529344
vn 0.076909 -0.811855 0.578771
vn 0.106252 -0.986459 0.124938
vn 0.198423 -0.008954 0.980075
vn 0.180648 -0.004828 0.983536
vn 0.081492 -0.996674 0.000000
vn 0.084073 -0.635974 0.767118
vn 0.202762 -0.876387 0.436845
vn 0.587902 -0.036885 0.808091
vn 0.841802 0.523443 0.131822
vn 0.873067 -0.483363 -0.064142
vn 0.173983 -0.731649 0.659106
vn -0.048782 0.937504 0.344537
vn -0.113193 0.555630 0.823688
vn -0.272347 -0.042963 0.961240
vn -0.921818 -0.042416 0.385296
vn -0.086651 0.749874 0.655881
vn -0.430252 0.672565 0.602113
vn -0.282876 0.000000 0.959156
vn -0.756094 0.000000 0.654464
vn -0.450148 -0.719139 0.529344
vn -0.076909 -0.811855 0.578771
vn -0.106252 -0.986459 0.124935
vn -0.061595 -0.005556 0.998086
vn -0.081492 -0.996674 0.000000
vn -0.184473 -0.736238 0.651093
vn -0.191528 -0.978217 0.080054
vn -0.587902 -0.036885 0.808091
vn -0.880567 0.471925 0.043448
vn -0.873067 -0.483363 -0.064142
vn -0.229954 -0.920443 0.316079
vn -0.009018 0.958568 0.284722
vn -0.086795 0.949871 0.300352
vn 0.272347 -0.042963 -0.961240
vn 0.921818 -0.042416 -0.385296
vn 0.086651 0.749874 -0.655881
vn 0.430252 0.672565 -0.602113
vn 0.282876 0.000000 -0.959156
vn 0.756094 0.000000 -0.654464
vn 0.450148 -0.719139 -0.529344
vn 0.076909 -0.811855 -0.578771
vn 0.106252 -0.986459 -0.124935
vn 0.061595 -0.005556 -0.998086
vn 0.184473 -0.736238 -0.651093
vn 0.191528 -0.978217 -0.080054
vn 0.587902 -0.036885 -0.808091
vn 0.880567 0.471925 -0.043448
vn 0.873067 -0.483363 0.064142
vn 0.229954 -0.920443 -0.316079
vn 0.009018 0.958568 -0.284722
vn 0.086795 0.949871 -0.300352
vn -0.272347 -0.042963 -0.961240
vn -0.921818 -0.042416 -0.385296
vn -0.204300 0.691660 -0.692725
vn -0.610158 0.590568 -0.528145
vn -0.282876 0.000000 -0.959156
vn -0.756094 0.000000 -0.654464
vn -0.450148 -0.719139 -0.529344
vn -0.076909 -0.811855 -0.578771
vn -0.106252 -0.986459 -0.124938
vn -0.198423 -0.008954 -0.980075
vn -0.180648 -0.004828 -0.983536
vn -0.084073 -0.635974 -0.767118
vn -0.202762 -0.876387 -0.436845
vn -0.587902 -0.036885 -0.808091
vn -0.841802 0.523443 -0.131822
vn -0.873067 -0.483363 0.064142
vn -0.173983 -0.731649 -0.659106
vn 0.048782 0.937504 -0.344537
vn 0.113193 0.555630 -0.823688
s off
f 15//1 1//1 17//1
f 8//2 36//2 9//2
f 1//3 15//3 19//3
f 8//4 1//4 3//4
f 3//5 19//5 4//5
f 10//6 3//6 11//6
f 11//7 4//7 12//7
f 4//8 21//8 5//8
f 44//9 12//9 73//9
f 5//10 23//10 73//10
f 24//11 46//11 6//11
f 46//12 45//12 47//12
f 46//13 24//13 49//13
f 17//14 2//14 7//14
f 9//15 38//15 51//15
f 1//16 8//16 2//16
f 36//17 8//17 10//17
f 40//18 10//18 42//18
f 42//19 11//19 44//19
f 2//20 9//20 13//20
f 24//21 28//21 7//21
f 46//22 7//22 13//22
f 13//23 51//23 45//23
f 25//24 6//24 91//24
f 6//25 47//25 91//25
f 15//26 17//26 14//26
f 29//27 30//27 59//27
f 14//28 18//28 19//28
f 29//29 31//29 18//29
f 18//30 20//30 19//30
f 31//31 32//31 18//31
f 32//32 33//32 20//32
f 20//33 22//33 21//33
f 71//34 73//34 33//34
f 22//35 73//35 23//35
f 24//36 25//36 26//36
f 76//37 26//37 78//37
f 76//13 81//13 24//13
f 17//38 28//38 27//38
f 30//39 34//39 83//39
f 14//40 16//40 29//40
f 59//41 65//41 31//41
f 65//42 68//42 31//42
f 68//43 71//43 32//43
f 16//44 27//44 34//44
f 24//45 76//45 27//45
f 76//46 75//46 34//46
f 34//47 75//47 83//47
f 25//48 91//48 26//48
f 26//49 91//49 78//49
f 60//50 63//50 35//50
f 52//51 53//51 36//51
f 35//52 39//52 66//52
f 52//53 54//53 39//53
f 39//54 41//54 66//54
f 54//55 55//55 39//55
f 55//56 56//56 41//56
f 41//57 43//57 69//57
f 44//58 73//58 56//58
f 43//59 73//59 72//59
f 74//60 77//60 48//60
f 46//61 48//61 47//61
f 46//62 49//62 74//62
f 63//63 84//63 50//63
f 53//64 57//64 51//64
f 35//65 37//65 52//65
f 36//66 40//66 54//66
f 40//67 42//67 54//67
f 42//68 44//68 55//68
f 37//69 50//69 57//69
f 74//70 46//70 50//70
f 46//71 45//71 57//71
f 57//72 45//72 51//72
f 77//73 91//73 48//73
f 48//74 91//74 47//74
f 60//75 58//75 63//75
f 85//76 59//76 86//76
f 58//77 60//77 66//77
f 85//78 58//78 64//78
f 64//79 66//79 67//79
f 87//80 64//80 88//80
f 88//81 67//81 89//81
f 67//82 69//82 70//82
f 71//83 89//83 73//83
f 70//84 72//84 73//84
f 74//85 76//85 79//85
f 76//86 75//86 78//86
f 76//62 74//62 81//62
f 63//87 61//87 82//87
f 86//88 62//88 83//88
f 58//89 85//89 61//89
f 59//90 85//90 87//90
f 65//91 87//91 68//91
f 68//92 88//92 71//92
f 61//93 86//93 90//93
f 74//94 84//94 82//94
f 76//95 82//95 90//95
f 90//96 83//96 75//96
f 77//97 79//97 91//97
f 79//98 78//98 91//98
f 1//99 2//99 17//99
f 36//100 38//100 9//100
f 3//101 1//101 19//101
f 10//102 8//102 3//102
f 19//103 21//103 4//103
f 3//104 4//104 11//104
f 4//105 5//105 12//105
f 21//106 23//106 5//106
f 12//107 5//107 73//107
f 25//108 24//108 6//108
f 6//109 46//109 47//109
f 24//110 80//110 49//110
f 28//111 17//111 7//111
f 13//112 9//112 51//112
f 8//113 9//113 2//113
f 40//114 36//114 10//114
f 10//18 11//18 42//18
f 11//115 12//115 44//115
f 7//116 2//116 13//116
f 46//117 24//117 7//117
f 45//118 46//118 13//118
f 17//119 16//119 14//119
f 30//120 62//120 59//120
f 15//121 14//121 19//121
f 14//122 29//122 18//122
f 20//123 21//123 19//123
f 32//124 20//124 18//124
f 33//125 22//125 20//125
f 22//126 23//126 21//126
f 73//127 22//127 33//127
f 76//128 24//128 26//128
f 75//12 76//12 78//12
f 81//129 80//129 24//129
f 16//130 17//130 27//130
f 62//131 30//131 83//131
f 16//132 30//132 29//132
f 29//133 59//133 31//133
f 68//42 32//42 31//42
f 71//134 33//134 32//134
f 30//135 16//135 34//135
f 28//136 24//136 27//136
f 27//137 76//137 34//137
f 63//138 37//138 35//138
f 53//139 38//139 36//139
f 60//140 35//140 66//140
f 35//141 52//141 39//141
f 41//142 69//142 66//142
f 55//143 41//143 39//143
f 56//144 43//144 41//144
f 43//145 72//145 69//145
f 73//146 43//146 56//146
f 46//147 74//147 48//147
f 45//86 46//86 47//86
f 49//110 80//110 74//110
f 37//148 63//148 50//148
f 38//149 53//149 51//149
f 37//150 53//150 52//150
f 52//151 36//151 54//151
f 42//67 55//67 54//67
f 44//152 56//152 55//152
f 53//153 37//153 57//153
f 84//154 74//154 50//154
f 50//155 46//155 57//155
f 58//156 61//156 63//156
f 59//157 62//157 86//157
f 64//158 58//158 66//158
f 87//159 85//159 64//159
f 66//160 69//160 67//160
f 64//161 67//161 88//161
f 67//162 70//162 89//162
f 69//163 72//163 70//163
f 89//164 70//164 73//164
f 77//165 74//165 79//165
f 79//166 76//166 78//166
f 74//129 80//129 81//129
f 84//167 63//167 82//167
f 90//168 86//168 83//168
f 85//169 86//169 61//169
f 65//170 59//170 87//170
f 87//91 88//91 68//91
f 88//171 89//171 71//171
f 82//172 61//172 90//172
f 76//173 74//173 82//173
f 75//174 76//174 90//174
