# Blender v2.69 (sub 0) OBJ File: 'asset_anim_test.blend'
# www.blender.org
o Model1_Cube
v 0.198735 -0.014915 -0.198735
v 0.198735 -0.014915 0.198735
v -0.198735 -0.014915 0.198735
v -0.198735 -0.014915 -0.198735
v 0.198735 0.382554 -0.198735
v 0.198735 0.382554 0.198735
v -0.198735 0.382554 0.198735
v -0.198735 0.382554 -0.198735
v 0.681796 0.788667 -0.198735
v 0.681795 0.788667 0.198735
v 0.284326 0.788667 0.198735
v 0.284326 0.788667 -0.198735
v 0.681796 1.173406 -0.198735
v 0.681795 1.173406 0.198735
v 0.284326 1.173406 0.198735
v 0.284326 1.173406 -0.198735
v 0.198735 -0.014915 0.703170
v -0.198735 -0.014915 0.703170
v 0.198735 0.382554 0.703170
v -0.198735 0.382554 0.703170
vt 0.476462 0.791980
vt 0.476462 0.617467
vt 0.650974 0.791980
vt 0.825487 0.673077
vt 0.650974 0.673077
vt 0.825487 0.395990
vt 0.476462 0.000000
vt 0.650974 0.000000
vt 0.476462 0.174513
vt 0.000000 0.646351
vt 0.174513 0.646351
vt 0.000000 0.867828
vt 0.650974 0.221477
vt 0.825487 0.221477
vt 0.650974 0.395990
vt 0.149569 0.406872
vt 0.239479 0.556440
vt 0.000000 0.496783
vt 1.000000 0.673077
vt 0.825487 0.842000
vt 0.476462 0.497849
vt 0.327533 0.406882
vt 0.239479 0.144158
vt 0.239479 0.144778
vt 0.239479 0.497849
vt 0.413992 0.497849
vt 0.239479 0.774936
vt 0.825487 0.847590
vt 0.388408 0.235126
vt 0.476461 0.090967
vt 0.089911 0.234689
vt 0.152448 0.000000
vt 0.476462 0.960904
vt 0.413992 0.774936
vt 0.239479 0.949449
vt 0.825487 0.000000
vt 0.650974 0.174513
vt 0.476462 0.395990
vt 0.650974 0.617467
vt 0.174513 0.867828
vt 0.089911 0.646351
vt 1.000000 0.842000
vt 0.650974 0.847590
vt 0.327533 0.000000
vt 0.002880 0.089911
vt 0.650974 0.960904
vt 0.413992 0.949449
vn 0.577349 -0.577349 -0.577349
vn 0.707083 -0.707083 0.000000
vn -0.577349 -0.577349 -0.577349
vn -0.708884 0.330149 -0.623280
vn -0.823542 0.550005 0.138646
vn -0.524583 0.244301 -0.815516
vn 0.524583 -0.244301 -0.815516
vn 0.859401 0.076235 0.505509
vn 0.577349 0.577349 0.577349
vn -0.707083 -0.707083 0.000000
vn -0.524583 0.244301 0.815516
vn -0.577349 0.577349 -0.577349
vn 0.708884 -0.330149 0.623280
vn 0.708884 -0.330149 -0.623280
vn 0.577349 0.577349 -0.577349
vn -0.577349 0.577349 0.577349
vn 0.577349 -0.577349 0.577349
vn -0.577349 -0.577349 0.577349
s 1
f 1/1/1 2/2/2 4/3/3
f 8/4/4 7/5/5 12/6/6
f 1/7/1 5/8/7 2/9/2
f 6/10/8 7/11/5 19/12/9
f 3/13/10 7/14/5 4/15/3
f 5/16/7 1/17/1 8/18/4
f 12/4/6 11/19/11 16/20/12
f 7/21/5 6/22/8 10/23/13
f 5/16/7 8/18/4 9/24/14
f 6/25/8 5/26/7 10/27/13
f 13/4/15 16/28/12 14/5/9
f 11/29/11 10/23/13 15/30/16
f 9/24/14 12/31/6 13/32/15
f 10/1/13 9/3/14 14/33/9
f 17/27/17 19/34/9 18/35/18
f 7/14/5 3/13/10 20/36/16
f 2/9/2 6/37/8 17/38/17
f 3/39/10 2/2/2 18/15/18
f 2/2/2 3/39/10 4/3/3
f 7/5/5 11/15/11 12/6/6
f 5/8/7 6/37/8 2/9/2
f 7/11/5 20/40/16 19/12/9
f 7/14/5 8/6/4 4/15/3
f 1/17/1 4/41/3 8/18/4
f 11/19/11 15/42/16 16/20/12
f 11/29/11 7/21/5 10/23/13
f 8/18/4 12/31/6 9/24/14
f 5/26/7 9/34/14 10/27/13
f 16/28/12 15/43/16 14/5/9
f 10/23/13 14/44/9 15/30/16
f 12/31/6 16/45/12 13/32/15
f 9/3/14 13/46/15 14/33/9
f 19/34/9 20/47/16 18/35/18
f 3/13/10 18/8/18 20/36/16
f 6/37/8 19/15/9 17/38/17
f 2/2/2 17/38/17 18/15/18
w (Base:0.533397) (BaseSide:0.499741)
w (Base:0.500001) (BaseSide:0.500000)
w (Base:0.500000) (BaseSide:0.493197)
w (Base:0.500000) (BaseSide:0.485069)
w (Base:0.512095) (Mid:0.500000)
w (Base:0.500847) (BaseSide:0.499998) (Mid:0.499952)
w (Base:0.500716) (BaseSide:0.500000) (Mid:0.499736)
w (Base:0.502355) (Mid:0.499553)
w (Mid:0.500000) (Top:0.499284)
w (Mid:0.500000) (Top:0.498365)
w (Mid:0.500000) (Top:0.500000)
w (Mid:0.509538) (Top:0.500000)
w (Top:0.980969)
w (Top:1.000000)
w (Top:1.000000)
w (Top:1.000000)
w (BaseSide:1.000000) (Mid:0.000000)
w (BaseSide:1.000000) (Mid:0.000000)
w (BaseSide:0.997700) (Mid:0.000000)
w (BaseSide:1.000000) (Mid:0.000000)