# Blender v2.69 (sub 0) OBJ File: 'untitled.blend'
# www.blender.org
o Cube
v 0.500000 -0.500000 -0.500000
v 0.500000 -0.500000 0.500000
v -0.500000 -0.500000 0.500000
v -0.500000 -0.500000 -0.500000
v 0.500000 0.500000 -0.500000
v 0.500000 0.500000 0.500000
v -0.500000 0.500000 0.500000
v -0.500000 0.500000 -0.500000
v 0.500000 -0.500000 -0.500000
v 0.500000 -0.500000 -0.500000
v 0.500000 -0.500000 0.500000
v 0.500000 -0.500000 0.500000
v -0.500000 -0.500000 -0.500000
v -0.500000 -0.500000 -0.500000
v 0.500000 0.500000 -0.500000
v 0.500000 0.500000 -0.500000
v -0.500000 -0.500000 0.500000
v -0.500000 -0.500000 0.500000
v 0.500000 0.500000 0.500000
v 0.500000 0.500000 0.500000
v -0.500000 0.500000 0.500000
v -0.500000 0.500000 0.500000
v -0.500000 0.500000 -0.500000
v -0.500000 0.500000 -0.500000
vt 1.000000 1.000000
vt 1.000000 0.000000
vt 0.000001 1.000000
vt 0.000000 1.000000
vt 0.999999 0.000000
vt 0.000000 0.000000
vt 0.999999 1.000000
vt 0.000001 0.000000
vn 0.000000 -1.000000 0.000000
vn 0.000000 1.000000 0.000000
vn 1.000000 -0.000000 0.000000
vn -0.000000 -0.000000 1.000000
vn -1.000000 -0.000000 -0.000000
vn 0.000000 0.000000 -1.000000
vn 1.000000 0.000000 0.000001
s off
f 1/1/1 2/2/1 4/3/1
f 15/1/2 23/4/2 19/5/2
f 9/2/3 5/1/3 11/6/3
f 12/2/4 20/7/4 17/6/4
f 18/6/5 22/4/5 13/2/5
f 16/1/6 10/2/6 24/4/6
f 2/2/1 3/6/1 4/3/1
f 23/4/2 21/6/2 19/5/2
f 5/1/7 6/4/7 11/6/7
f 20/7/4 7/4/4 17/6/4
f 22/4/5 8/1/5 13/2/5
f 10/2/6 14/8/6 24/4/6
